<svg width="19" height="20" viewBox="0 0 19 20" fill="none" xmlns="http://www.w3.org/2000/svg">
<path d="M16.2418 2.90268C16.5918 2.90268 17.048 2.8924 17.5042 2.90268C18.4377 2.92324 19 3.47841 19 4.39342C19 9.09185 19 13.78 19 18.4784C19 19.4345 18.4059 20 17.4087 20C12.1362 20 6.87437 20 1.6019 20C0.583473 20 0 19.4243 0 18.4373C0 13.78 0 9.12269 0 4.45511C0 3.43729 0.541039 2.91296 1.59129 2.90268C2.01563 2.90268 2.42937 2.90268 2.89615 2.90268C2.99162 1.97739 2.73702 0.980129 3.68118 0.332425C4.27526 -0.0788153 4.933 -0.0171293 5.56951 0.0445568C7.37298 0.229615 7.31993 1.56615 7.30932 2.87183C8.77331 2.87183 10.1949 2.87183 11.6695 2.87183C11.6695 1.49418 11.6588 0.116524 13.6214 0.0239948C14.4171 -0.00684828 15.287 -0.0376913 15.6795 0.743666C16.019 1.37081 16.0614 2.1316 16.2418 2.90268ZM17.536 18.6018C17.536 14.7567 17.536 10.963 17.536 7.17958C12.1575 7.17958 6.83194 7.17958 1.4852 7.17958C1.4852 11.0041 1.4852 14.7978 1.4852 18.6018C6.85315 18.6018 12.1681 18.6018 17.536 18.6018ZM13.1653 3.38589C13.1653 3.87937 13.1865 4.38314 13.1547 4.87663C13.1334 5.34956 13.3987 5.42153 13.7912 5.40096C14.1731 5.3804 14.6611 5.52434 14.6505 4.87663C14.6399 3.89994 14.6399 2.92324 14.6505 1.95682C14.6505 1.60727 14.4913 1.45306 14.1413 1.47362C13.9821 1.4839 13.823 1.4839 13.6639 1.47362C13.3138 1.46334 13.1441 1.59699 13.1653 1.95682C13.1865 2.42975 13.1653 2.91296 13.1653 3.38589ZM5.84534 3.42701C5.84534 2.91296 5.87716 2.39891 5.82412 1.88486C5.81351 1.73064 5.60134 1.54558 5.4316 1.4839C5.25126 1.41193 5.01787 1.46334 4.80569 1.46334C4.49805 1.46334 4.36013 1.61755 4.36013 1.90542C4.36013 2.91296 4.36013 3.9205 4.36013 4.92804C4.36013 5.24675 4.52987 5.39068 4.85874 5.3804C4.99665 5.3804 5.14517 5.37012 5.28308 5.3804C5.68621 5.41124 5.86655 5.25703 5.84534 4.84579C5.83473 4.38314 5.84534 3.89994 5.84534 3.42701Z" fill="white"/>
</svg>
