<svg width="20" height="20" viewBox="0 0 20 20" fill="none" xmlns="http://www.w3.org/2000/svg">
<path d="M10.9677 20C10.3226 20 9.67742 20 9.03226 20C8.90323 19.9516 8.79032 19.8871 8.66129 19.871C4.64516 19.2419 1.96774 16.9839 0.564516 13.2097C0.290323 12.4839 0.177419 11.7097 0 10.9677C0 10.3226 0 9.67742 0 9.03226C0.0483871 8.8871 0.112903 8.72581 0.145161 8.58064C0.790323 4.67742 2.96774 2.03226 6.64516 0.629032C7.40323 0.33871 8.24193 0.209677 9.03226 0C9.67742 0 10.3226 0 10.9677 0C11.0968 0.0483871 11.2097 0.112903 11.3387 0.129032C15.3226 0.741935 18 2.96774 19.4032 6.70968C19.6774 7.45161 19.8065 8.25806 20 9.01613C20 9.66129 20 10.3065 20 10.9516C19.9516 11.0968 19.8871 11.2581 19.8548 11.4032C19.2097 15.3387 16.9839 18 13.2742 19.3871C12.5323 19.6774 11.7419 19.8065 10.9677 20ZM10.0161 1.62903C5.43548 1.62903 1.66129 5.3871 1.64516 9.96774C1.62903 14.5806 5.41935 18.371 10.0323 18.371C14.6129 18.3548 18.371 14.5806 18.371 10C18.3548 5.41935 14.5806 1.64516 10.0161 1.62903Z" fill="#3C82F8"/>
<path d="M9.19711 7.93557C9.19711 7.32267 9.21324 6.70977 9.19711 6.08074C9.18098 5.48396 9.40678 5.03235 10.0197 5.03235C10.6487 5.04848 10.8261 5.51622 10.8261 6.11299C10.81 7.08074 10.7778 8.04848 10.8423 9.00009C10.8584 9.35493 11.0519 9.75815 11.2778 10.0323C11.7939 10.6453 12.4068 11.1775 12.9713 11.7582C13.3584 12.1453 13.4874 12.613 13.0842 13.0323C12.6487 13.484 12.1648 13.3711 11.7455 12.9517C11.0197 12.2259 10.2778 11.5323 9.60033 10.7743C9.37453 10.5162 9.24549 10.1291 9.21324 9.77428C9.14872 9.16138 9.19711 8.54848 9.19711 7.93557Z" fill="#3C82F8"/>
</svg>
