<svg width="16" height="14" viewBox="0 0 16 14" fill="none" xmlns="http://www.w3.org/2000/svg">
<path d="M8.35725 13.4315C8.27936 13.4315 8.20143 13.4137 8.12989 13.3779C8.0578 13.3418 6.34493 12.4787 4.60733 11.0307C3.57563 10.171 2.75068 9.28238 2.15551 8.38955C1.38877 7.23949 1 6.07645 1 4.93283C1 2.76425 2.76425 1 4.93283 1C6.39952 1 7.68122 1.80687 8.35725 3.00018C9.03327 1.80687 10.315 1 11.7817 1C13.9502 1 15.7145 2.76425 15.7145 4.93283C15.7145 6.07645 15.3257 7.23949 14.559 8.38955C13.9638 9.28238 13.1389 10.171 12.1072 11.0308C10.3696 12.4787 8.65669 13.3418 8.5846 13.3779C8.51306 13.4137 8.43513 13.4315 8.35725 13.4315ZM4.93283 2.01684C3.32499 2.01684 2.01689 3.32494 2.01689 4.93278C2.01689 8.68478 7.19837 11.7169 8.3571 12.3477C9.51538 11.7161 14.6977 8.67933 14.6977 4.93278C14.6977 3.32494 13.3896 2.01684 11.7817 2.01684C10.1738 2.01684 8.86576 3.32494 8.86576 4.93278C8.86576 5.21355 8.63806 5.44125 8.3573 5.44125C8.07653 5.44125 7.84883 5.21355 7.84883 4.93278C7.84878 3.32499 6.54072 2.01684 4.93283 2.01684Z" fill="white" stroke="white" stroke-width="0.5"/>
</svg>
