<svg width="70" height="70" viewBox="0 0 70 70" fill="none" xmlns="http://www.w3.org/2000/svg">
<circle cx="35" cy="35" r="33" stroke="#D20303" stroke-width="4"/>
<path d="M34.9973 37.3307C33.4064 38.9326 31.8749 40.4659 30.3433 42.0107C29.1917 43.1664 28.0401 44.3221 26.8885 45.4778C26.4017 45.9698 25.7844 46.0842 25.1432 45.9011C24.4903 45.7181 24.0985 45.2375 24.0154 44.5624C23.9323 43.9674 24.1935 43.5097 24.6209 43.0863C27.1972 40.5003 29.7735 37.9143 32.3379 35.3168C32.4329 35.2253 32.516 35.1223 32.6466 34.985C32.5041 34.8362 32.3854 34.6989 32.2548 34.5616C29.6903 31.9985 27.1378 29.4239 24.5734 26.8493C24.1816 26.4603 23.956 26.014 24.0154 25.4648C24.0985 24.7782 24.4784 24.2862 25.167 24.0802C25.8437 23.8857 26.4492 24.0459 26.9478 24.5494C28.4081 26.0255 29.8803 27.5016 31.3406 28.9662C32.5397 30.1791 33.7388 31.392 35.0923 32.7537C35.2466 32.5248 35.3416 32.3074 35.5078 32.1472C38.001 29.6184 40.506 27.0896 43.0111 24.5837C44.0203 23.5768 45.5755 23.9315 45.9436 25.2474C46.1098 25.8538 45.8723 26.3687 45.4449 26.8036C43.0823 29.1836 40.7079 31.5751 38.3453 33.9551C38.0129 34.287 37.6923 34.6188 37.3243 34.9964C37.5736 35.2481 37.7992 35.4884 38.0247 35.7173C40.4823 38.2003 42.9517 40.6719 45.4093 43.1549C45.8605 43.6126 46.1217 44.1161 45.9436 44.7569C45.5755 46.0499 44.044 46.4275 43.0467 45.4434C41.1353 43.544 39.2357 41.6216 37.3361 39.7107C36.5763 38.9326 35.8165 38.1546 34.9973 37.3307Z" fill="#D20303"/>
</svg>
